<svg width="24" height="24" viewBox="0 0 24 24" fill="none" xmlns="http://www.w3.org/2000/svg">
<g clip-path="url(#clip0_1_442)">
<path d="M9.25016 21.1666C9.75642 21.1666 10.1668 20.7562 10.1668 20.2499C10.1668 19.7437 9.75642 19.3333 9.25016 19.3333C8.7439 19.3333 8.3335 19.7437 8.3335 20.2499C8.3335 20.7562 8.7439 21.1666 9.25016 21.1666Z" stroke="#2C2D35" stroke-width="2" stroke-linecap="round" stroke-linejoin="round"/>
<path d="M19.3332 21.1666C19.8394 21.1666 20.2498 20.7562 20.2498 20.2499C20.2498 19.7437 19.8394 19.3333 19.3332 19.3333C18.8269 19.3333 18.4165 19.7437 18.4165 20.2499C18.4165 20.7562 18.8269 21.1666 19.3332 21.1666Z" stroke="#2C2D35" stroke-width="2" stroke-linecap="round" stroke-linejoin="round"/>
<path d="M1.9165 1.91675H5.58317L8.03984 14.1909C8.12366 14.6129 8.35325 14.992 8.68842 15.2619C9.02359 15.5317 9.44298 15.675 9.87317 15.6667H18.7832C19.2134 15.675 19.6328 15.5317 19.9679 15.2619C20.3031 14.992 20.5327 14.6129 20.6165 14.1909L22.0832 6.50008H6.49984" stroke="#2C2D35" stroke-width="2" stroke-linecap="round" stroke-linejoin="round"/>
</g>
<defs>
<clipPath id="clip0_1_442">
<rect width="22" height="22" fill="white" transform="translate(1 1)"/>
</clipPath>
</defs>
</svg>
